<?xml version="1.0" encoding="UTF-8" standalone="no"?>
<!DOCTYPE svg PUBLIC "-//W3C//DTD SVG 1.1//EN"
 "http://www.w3.org/Graphics/SVG/1.1/DTD/svg11.dtd">
<!-- Generated by graphviz version 12.1.1 (20240910.0053)
 -->
<!-- Title: INFRA Pages: 1 -->
<svg width="1124pt" height="296pt"
 viewBox="0.00 0.00 1123.95 296.00" xmlns="http://www.w3.org/2000/svg" xmlns:xlink="http://www.w3.org/1999/xlink">
<g id="graph0" class="graph" transform="scale(1 1) rotate(0) translate(4 292)">
<title>INFRA</title>
<polygon fill="white" stroke="none" points="-4,4 -4,-292 1119.95,-292 1119.95,4 -4,4"/>
<!-- AppService -->
<g id="node1" class="node">
<title>AppService</title>
<path fill="#b7e0ff" stroke="black" stroke-width="2" d="M306.43,-288C306.43,-288 182.19,-288 182.19,-288 176.19,-288 170.19,-282 170.19,-276 170.19,-276 170.19,-228 170.19,-228 170.19,-222 176.19,-216 182.19,-216 182.19,-216 306.43,-216 306.43,-216 312.43,-216 318.43,-222 318.43,-228 318.43,-228 318.43,-276 318.43,-276 318.43,-282 312.43,-288 306.43,-288"/>
<text text-anchor="middle" x="244.31" y="-256.2" font-family="Arial" font-size="14.00">AppService</text>
<text text-anchor="middle" x="244.31" y="-239.4" font-family="Arial" font-size="14.00">(AWS::ECS::Service)</text>
</g>
<!-- AppTaskDefinition -->
<g id="node2" class="node">
<title>AppTaskDefinition</title>
<path fill="#b7e0ff" stroke="black" stroke-width="2" d="M193.44,-180C193.44,-180 27.18,-180 27.18,-180 21.18,-180 15.18,-174 15.18,-168 15.18,-168 15.18,-120 15.18,-120 15.18,-114 21.18,-108 27.18,-108 27.18,-108 193.44,-108 193.44,-108 199.44,-108 205.44,-114 205.44,-120 205.44,-120 205.44,-168 205.44,-168 205.44,-174 199.44,-180 193.44,-180"/>
<text text-anchor="middle" x="110.31" y="-148.2" font-family="Arial" font-size="14.00">AppTaskDefinition</text>
<text text-anchor="middle" x="110.31" y="-131.4" font-family="Arial" font-size="14.00">(AWS::ECS::TaskDefinition)</text>
</g>
<!-- AppService&#45;&gt;AppTaskDefinition -->
<g id="edge1" class="edge">
<title>AppService&#45;&gt;AppTaskDefinition</title>
<path fill="none" stroke="black" d="M199.69,-215.7C188.17,-206.59 175.64,-196.68 163.71,-187.24"/>
<polygon fill="black" stroke="black" points="165.94,-184.54 155.93,-181.08 161.6,-190.03 165.94,-184.54"/>
</g>
<!-- AppLoadBalancer -->
<g id="node4" class="node">
<title>AppLoadBalancer</title>
<path fill="#e78f81" stroke="black" stroke-width="2" d="M521.4,-180C521.4,-180 235.23,-180 235.23,-180 229.23,-180 223.23,-174 223.23,-168 223.23,-168 223.23,-120 223.23,-120 223.23,-114 229.23,-108 235.23,-108 235.23,-108 521.4,-108 521.4,-108 527.4,-108 533.4,-114 533.4,-120 533.4,-120 533.4,-168 533.4,-168 533.4,-174 527.4,-180 521.4,-180"/>
<text text-anchor="middle" x="378.31" y="-148.2" font-family="Arial" font-size="14.00">AppLoadBalancer</text>
<text text-anchor="middle" x="378.31" y="-131.4" font-family="Arial" font-size="14.00">(AWS::ElasticLoadBalancingV2::LoadBalancer)</text>
</g>
<!-- AppService&#45;&gt;AppLoadBalancer -->
<g id="edge2" class="edge">
<title>AppService&#45;&gt;AppLoadBalancer</title>
<path fill="none" stroke="black" d="M288.93,-215.7C300.46,-206.59 312.99,-196.68 324.91,-187.24"/>
<polygon fill="black" stroke="black" points="327.03,-190.03 332.7,-181.08 322.69,-184.54 327.03,-190.03"/>
</g>
<!-- AppContainer -->
<g id="node3" class="node">
<title>AppContainer</title>
<path fill="#b7e0ff" stroke="black" stroke-width="2" d="M208.63,-72C208.63,-72 12,-72 12,-72 6,-72 0,-66 0,-60 0,-60 0,-12 0,-12 0,-6 6,0 12,0 12,0 208.63,0 208.63,0 214.63,0 220.63,-6 220.63,-12 220.63,-12 220.63,-60 220.63,-60 220.63,-66 214.63,-72 208.63,-72"/>
<text text-anchor="middle" x="110.31" y="-40.2" font-family="Arial" font-size="14.00">AppContainer</text>
<text text-anchor="middle" x="110.31" y="-23.4" font-family="Arial" font-size="14.00">(AWS::ECS::ContainerDefinition)</text>
</g>
<!-- AppTaskDefinition&#45;&gt;AppContainer -->
<g id="edge3" class="edge">
<title>AppTaskDefinition&#45;&gt;AppContainer</title>
<path fill="none" stroke="black" d="M110.31,-107.7C110.31,-99.93 110.31,-91.57 110.31,-83.43"/>
<polygon fill="black" stroke="black" points="113.81,-83.66 110.31,-73.66 106.81,-83.66 113.81,-83.66"/>
</g>
<!-- AppDatabase -->
<g id="node5" class="node">
<title>AppDatabase</title>
<path fill="#ffcfb3" stroke="black" stroke-width="2" d="M510.67,-281.45C510.67,-285.07 471.51,-288 423.31,-288 375.11,-288 335.96,-285.07 335.96,-281.45 335.96,-281.45 335.96,-222.55 335.96,-222.55 335.96,-218.93 375.11,-216 423.31,-216 471.51,-216 510.67,-218.93 510.67,-222.55 510.67,-222.55 510.67,-281.45 510.67,-281.45"/>
<path fill="none" stroke="black" stroke-width="2" d="M510.67,-281.45C510.67,-277.84 471.51,-274.91 423.31,-274.91 375.11,-274.91 335.96,-277.84 335.96,-281.45"/>
<text text-anchor="middle" x="423.31" y="-256.2" font-family="Arial" font-size="14.00">AppDatabase</text>
<text text-anchor="middle" x="423.31" y="-239.4" font-family="Arial" font-size="14.00">(AWS::RDS::DBInstance)</text>
</g>
<!-- AppSecurityGroup -->
<g id="node6" class="node">
<title>AppSecurityGroup</title>
<path fill="#e6e6e6" stroke="black" stroke-width="2" d="M706.06,-288C706.06,-288 540.57,-288 540.57,-288 534.57,-288 528.57,-282 528.57,-276 528.57,-276 528.57,-228 528.57,-228 528.57,-222 534.57,-216 540.57,-216 540.57,-216 706.06,-216 706.06,-216 712.06,-216 718.06,-222 718.06,-228 718.06,-228 718.06,-276 718.06,-276 718.06,-282 712.06,-288 706.06,-288"/>
<text text-anchor="middle" x="623.31" y="-256.2" font-family="Arial" font-size="14.00">AppSecurityGroup</text>
<text text-anchor="middle" x="623.31" y="-239.4" font-family="Arial" font-size="14.00">(AWS::EC2::SecurityGroup)</text>
</g>
<!-- AppLogGroup -->
<g id="node7" class="node">
<title>AppLogGroup</title>
<path fill="#e6e6e6" stroke="black" stroke-width="2" d="M889.01,-288C889.01,-288 747.61,-288 747.61,-288 741.61,-288 735.61,-282 735.61,-276 735.61,-276 735.61,-228 735.61,-228 735.61,-222 741.61,-216 747.61,-216 747.61,-216 889.01,-216 889.01,-216 895.01,-216 901.01,-222 901.01,-228 901.01,-228 901.01,-276 901.01,-276 901.01,-282 895.01,-288 889.01,-288"/>
<text text-anchor="middle" x="818.31" y="-256.2" font-family="Arial" font-size="14.00">AppLogGroup</text>
<text text-anchor="middle" x="818.31" y="-239.4" font-family="Arial" font-size="14.00">(AWS::Logs::LogGroup)</text>
</g>
<!-- RestConsumer -->
<g id="node8" class="node">
<title>RestConsumer</title>
<path fill="#e78f81" stroke="black" stroke-width="2" d="M1103.95,-288C1103.95,-288 930.68,-288 930.68,-288 924.68,-288 918.68,-282 918.68,-276 918.68,-276 918.68,-228 918.68,-228 918.68,-222 924.68,-216 930.68,-216 930.68,-216 1103.95,-216 1103.95,-216 1109.95,-216 1115.95,-222 1115.95,-228 1115.95,-228 1115.95,-276 1115.95,-276 1115.95,-282 1109.95,-288 1103.95,-288"/>
<text text-anchor="middle" x="1017.31" y="-256.2" font-family="Arial" font-size="14.00">RestConsumer</text>
<text text-anchor="middle" x="1017.31" y="-239.4" font-family="Arial" font-size="14.00">(AWS::ApiGateway::RestApi)</text>
</g>
</g>
</svg>
